#N canvas 96 96 1920 976 12;
#X obj 786 476 *~;
#X obj 909 403 line~;
#X floatatom 908 152 5 0 0 0 - - - 0;
#X obj 1008 464 line~;
#X floatatom 1008 388 0 0 0 0 - - - 0;
#X obj 1008 362 r delay;
#X obj 786 502 +~;
#X obj 723 528 cos~;
#X obj 723 555 *~;
#X obj 864 599 +~;
#X obj 850 405 wrap~;
#X obj 945 459 *~;
#X obj 945 511 +~;
#X obj 882 538 cos~;
#X obj 882 565 *~;
#X obj 850 378 +~ 0.5;
#X obj 723 476 -~ 0.5;
#X obj 723 502 *~ 0.5;
#X obj 882 458 -~ 0.5;
#X obj 882 510 *~ 0.5;
#X obj 786 334 phasor~;
#X obj 1008 415 max 1.5;
#X text 1011 321 delay;
#X text 1008 339 (msec);
#X obj 908 172 max 1;
#X obj 945 540 delread4~ G09-del, f 9;
#X obj 786 528 delread4~ G09-del, f 9;
#X obj 1008 439 pack f 200;
#X obj 909 377 pack f 200;
#X text 946 175 <-- window (msec);
#X floatatom 730 151 5 0 0 0 - - - 0;
#X obj 730 171 osc~;
#X obj 787 187 *~;
#X obj 786 214 -~ 1;
#X obj 786 240 *~ -1;
#X obj 786 277 /~;
#X floatatom 783 157 5 0 0 0 - - - 0;
#X floatatom 854 158 5 0 0 0 - - - 0;
#X obj 854 178 sig~;
#X obj 1053 683 outlet~;
#X obj 1188 482 *~;
#X obj 1311 409 line~;
#X floatatom 1310 157 5 0 0 0 - - - 0;
#X obj 1410 470 line~;
#X floatatom 1410 394 0 0 0 0 - - - 0;
#X obj 1410 368 r delay;
#X obj 1188 508 +~;
#X obj 1125 534 cos~;
#X obj 1125 561 *~;
#X obj 1266 605 +~;
#X obj 1252 411 wrap~;
#X obj 1347 465 *~;
#X obj 1347 517 +~;
#X obj 1284 544 cos~;
#X obj 1284 571 *~;
#X obj 1252 384 +~ 0.5;
#X obj 1125 482 -~ 0.5;
#X obj 1125 508 *~ 0.5;
#X obj 1284 464 -~ 0.5;
#X obj 1284 516 *~ 0.5;
#X obj 1188 340 phasor~;
#X obj 1410 421 max 1.5;
#X text 1413 327 delay;
#X text 1410 345 (msec);
#X obj 1310 178 max 1;
#X obj 1410 445 pack f 200;
#X obj 1311 383 pack f 200;
#X text 1348 181 <-- window (msec);
#X floatatom 1132 157 5 0 0 0 - - - 0;
#X obj 1132 177 osc~;
#X obj 1189 193 *~;
#X obj 1188 220 -~ 1;
#X obj 1188 246 *~ -1;
#X obj 1188 283 /~;
#X floatatom 1185 163 5 0 0 0 - - - 0;
#X floatatom 1256 164 5 0 0 0 - - - 0;
#X obj 1256 184 sig~;
#X obj 1110 683 outlet~;
#X obj 727 116 r modfreq;
#X obj 1131 114 r modfreq;
#X obj 797 116 r moddepth;
#X obj 874 116 r modoffset;
#X obj 1202 114 r moddepth;
#X obj 1279 114 r modoffset;
#X obj 1361 133 r windowyes;
#X obj 955 135 r windowyes;
#X obj 1347 546 delread4~ G10-del, f 9;
#X obj 1188 534 delread4~ G10-del, f 9;
#X obj 581 286 r window;
#X msg 114 318 \; transpose 0 \; window 100 \; delay 0;
#X obj 114 272 loadbang;
#X obj 115 246 delwrite~ G09-del 5000;
#X obj 353 285 inlet;
#X obj 422 285 inlet;
#X obj 498 285 inlet;
#X obj 115 218 inlet~;
#X obj 276 219 inlet~;
#X obj 353 306 s modfreq;
#X obj 422 306 s moddepth;
#X obj 498 306 s modoffset;
#X obj 581 306 s windowyes;
#X obj 276 246 delwrite~ G10-del 5000;
#X connect 0 0 6 0;
#X connect 1 0 0 1;
#X connect 1 0 11 1;
#X connect 2 0 24 0;
#X connect 3 0 6 1;
#X connect 3 0 12 1;
#X connect 4 0 21 0;
#X connect 5 0 4 0;
#X connect 6 0 26 0;
#X connect 7 0 8 0;
#X connect 8 0 9 0;
#X connect 9 0 39 0;
#X connect 10 0 11 0;
#X connect 10 0 18 0;
#X connect 11 0 12 0;
#X connect 12 0 25 0;
#X connect 13 0 14 0;
#X connect 14 0 9 1;
#X connect 15 0 10 0;
#X connect 16 0 17 0;
#X connect 17 0 7 0;
#X connect 18 0 19 0;
#X connect 19 0 13 0;
#X connect 20 0 0 0;
#X connect 20 0 16 0;
#X connect 20 0 15 0;
#X connect 21 0 27 0;
#X connect 24 0 28 0;
#X connect 24 0 35 1;
#X connect 25 0 14 1;
#X connect 26 0 8 1;
#X connect 27 0 3 0;
#X connect 28 0 1 0;
#X connect 30 0 31 0;
#X connect 31 0 32 0;
#X connect 32 0 33 0;
#X connect 33 0 34 0;
#X connect 34 0 35 0;
#X connect 35 0 20 0;
#X connect 36 0 32 1;
#X connect 37 0 38 0;
#X connect 38 0 33 0;
#X connect 40 0 46 0;
#X connect 41 0 40 1;
#X connect 41 0 51 1;
#X connect 42 0 64 0;
#X connect 43 0 46 1;
#X connect 43 0 52 1;
#X connect 44 0 61 0;
#X connect 45 0 44 0;
#X connect 46 0 87 0;
#X connect 47 0 48 0;
#X connect 48 0 49 0;
#X connect 49 0 77 0;
#X connect 50 0 51 0;
#X connect 50 0 58 0;
#X connect 51 0 52 0;
#X connect 52 0 86 0;
#X connect 53 0 54 0;
#X connect 54 0 49 1;
#X connect 55 0 50 0;
#X connect 56 0 57 0;
#X connect 57 0 47 0;
#X connect 58 0 59 0;
#X connect 59 0 53 0;
#X connect 60 0 40 0;
#X connect 60 0 56 0;
#X connect 60 0 55 0;
#X connect 61 0 65 0;
#X connect 64 0 66 0;
#X connect 64 0 73 1;
#X connect 65 0 43 0;
#X connect 66 0 41 0;
#X connect 68 0 69 0;
#X connect 69 0 70 0;
#X connect 70 0 71 0;
#X connect 71 0 72 0;
#X connect 72 0 73 0;
#X connect 73 0 60 0;
#X connect 74 0 70 1;
#X connect 75 0 76 0;
#X connect 76 0 71 0;
#X connect 78 0 30 0;
#X connect 79 0 68 0;
#X connect 80 0 36 0;
#X connect 81 0 37 0;
#X connect 82 0 74 0;
#X connect 83 0 75 0;
#X connect 84 0 42 0;
#X connect 85 0 2 0;
#X connect 86 0 54 1;
#X connect 87 0 48 1;
#X connect 88 0 100 0;
#X connect 90 0 89 0;
#X connect 92 0 97 0;
#X connect 93 0 98 0;
#X connect 94 0 99 0;
#X connect 95 0 91 0;
#X connect 96 0 101 0;
